<?xml version="1.0" encoding="iso-8859-1"?>
<!DOCTYPE svg PUBLIC "-//W3C//DTD SVG 1.1//EN" "http://www.w3.org/Graphics/SVG/1.1/DTD/svg11.dtd">
<svg 
 version="1.1" xmlns="http://www.w3.org/2000/svg" xmlns:xlink="http://www.w3.org/1999/xlink" x="0px" y="0px" width="512px"
	 height="512px" viewBox="0 0 512 512" enable-background="new 0 0 512 512" xml:space="preserve"
><g id="5151e0c8492e5103c096af88a5230ad9"><g></g><path display="inline" d="M200.179,154.096c0-51.197,41.085-153.596,64.872-153.596c23.795,0,64.344,102.399,64.344,153.596
		c0,16.34-7.234,30.853-21.613,40.231c0.021-0.613,0.076-1.211,0.076-1.831c0-38.4-27.03-115.199-42.889-115.199
		c-15.865,0-43.253,76.798-43.253,115.199c0,0.62,0.055,1.218,0.075,1.831C207.412,184.949,200.179,170.437,200.179,154.096z
		 M423.396,280.053v-32.863c0-9.347,0.386-17.851-1.362-24.177c-10.194,21.596-76.657,38.273-157.183,38.273
		c-87.587,0-158.586-19.724-158.586-44.052c0-0.192,0.041-0.385,0.048-0.578c-10.579,6.102-17.751,17.507-17.751,30.533
		l17.703,53.11v167.148c0,24.328,70.999,44.052,158.586,44.052s158.586-19.724,158.586-44.052V280.053H423.396z"></path></g></svg>