<svg width="25" height="25" xmlns="http://www.w3.org/2000/svg" xmlns:xlink="http://www.w3.org/1999/xlink"><defs><path d="M23.25 12.5c0-5.937-4.813-10.75-10.75-10.75S1.75 6.563 1.75 12.5 6.563 23.25 12.5 23.25s10.75-4.813 10.75-10.75zm1.5 0c0 6.765-5.485 12.25-12.25 12.25C5.734 24.75.25 19.266.25 12.5S5.734.25 12.5.25c6.765 0 12.25 5.485 12.25 12.25z" id="a"/><path d="M16.746 12.948a4.22 4.22 0 0 1-.792 2.037c-.127.172-.184.414-.156.676l.051.473c.037.344.25.647.563.802l3.544 1.749c.566.279 1.067.672 1.476 1.153l-.57.486.642.387c-.327.544-1.003 1.312-2.088 2.067-1.776 1.235-4.07 1.972-6.916 1.972s-5.14-.737-6.916-1.972c-1.086-.755-1.762-1.523-2.09-2.067l-.278-.463.351-.41a4.65 4.65 0 0 1 1.476-1.153l3.545-1.75c.313-.154.525-.456.562-.801l.052-.473a.971.971 0 0 0-.156-.676 4.155 4.155 0 0 1-.787-1.993c-.56-.268-.984-.76-1.104-1.377l-.186-.962a1.802 1.802 0 0 1 .803-1.866l-.128-1.1c-.29-2.522 1.693-4.73 4.242-4.73h1.227c2.55 0 4.533 2.209 4.241 4.729l-.126 1.101c.614.391.946 1.125.804 1.865l-.187.965a1.81 1.81 0 0 1-1.099 1.331zm2.546 7.082l-3.544-1.75a2.519 2.519 0 0 1-1.39-1.985l-.051-.474c-.066-.62.08-1.236.438-1.724.277-.377.452-.813.506-1.277l.143-1.239h.668a.313.313 0 0 0 .31-.25l.187-.963a.308.308 0 0 0-.2-.346l-.75-.284.066-.58.19-1.644c.188-1.627-1.097-3.058-2.752-3.058h-1.227c-1.655 0-2.94 1.43-2.752 3.058l.26 2.225-.55.206-.207.078a.304.304 0 0 0-.195.344l.186.963a.314.314 0 0 0 .31.251h.667l.077.663.068.576c.053.464.227.899.506 1.278.357.488.503 1.104.437 1.724l-.052.473a2.513 2.513 0 0 1-1.39 1.986L5.707 20.03c-.203.1-.395.223-.572.365a7.22 7.22 0 0 0 1.305 1.151c1.528 1.063 3.524 1.704 6.06 1.704 2.536 0 4.532-.641 6.06-1.704a7.202 7.202 0 0 0 1.297-1.143 2.548 2.548 0 0 0-.565-.373z" id="c"/></defs><g fill="none" fill-rule="evenodd"><mask id="b" fill="#fff"><use xlink:href="#a"/></mask><use fill="#455065" fill-rule="nonzero" xlink:href="#a"/><g mask="url(#b)" fill="#FFF"><path d="M0 0h25v25H0z"/></g><mask id="d" fill="#fff"><use xlink:href="#c"/></mask><use fill="#455065" fill-rule="nonzero" xlink:href="#c"/><g mask="url(#d)" fill="#FFF"><path d="M0 0h25v25H0z"/></g></g></svg>