<?xml version="1.0" encoding="UTF-8"?>
<svg width="438px" height="887px" viewBox="0 0 438 887" version="1.1" xmlns="http://www.w3.org/2000/svg" xmlns:xlink="http://www.w3.org/1999/xlink">
    <title>iPhone 12 - 12 Pro</title>
    <g id="iPhone-12---12-Pro" stroke="none" stroke-width="1" fill="none" fill-rule="evenodd">
        <path d="M0,143 L0.214723324,143 C0.71819771,143 0.988189833,143.069619 1.23263428,143.20035 C1.47707872,143.33108 1.66892015,143.522921 1.79965047,143.767366 C1.93038079,144.01181 2,144.281802 2,144.785277 L2,174.214723 C2,174.718198 1.93038079,174.98819 1.79965047,175.232634 C1.66892015,175.477079 1.47707872,175.66892 1.23263428,175.79965 C0.988189833,175.930381 0.71819771,176 0.214723324,176 L0,176 L0,176 L0,143 Z" id="Button" fill="#181818" transform="translate(1.000000, 159.500000) scale(-1, 1) translate(-1.000000, -159.500000) "></path>
        <path d="M0,291 L0.214723324,291 C0.71819771,291 0.988189833,291.069619 1.23263428,291.20035 C1.47707872,291.33108 1.66892015,291.522921 1.79965047,291.767366 C1.93038079,292.01181 2,292.281802 2,292.785277 L2,353.214723 C2,353.718198 1.93038079,353.98819 1.79965047,354.232634 C1.66892015,354.477079 1.47707872,354.66892 1.23263428,354.79965 C0.988189833,354.930381 0.71819771,355 0.214723324,355 L0,355 L0,355 L0,291 Z" id="Button-Copy-4" fill="#181818" transform="translate(1.000000, 323.000000) scale(-1, 1) translate(-1.000000, -323.000000) "></path>
        <path d="M0,207 L0.214723324,207 C0.71819771,207 0.988189833,207.069619 1.23263428,207.20035 C1.47707872,207.33108 1.66892015,207.522921 1.79965047,207.767366 C1.93038079,208.01181 2,208.281802 2,208.785277 L2,269.214723 C2,269.718198 1.93038079,269.98819 1.79965047,270.232634 C1.66892015,270.477079 1.47707872,270.66892 1.23263428,270.79965 C0.988189833,270.930381 0.71819771,271 0.214723324,271 L0,271 L0,271 L0,207 Z" id="Button-Copy-3" fill="#181818" transform="translate(1.000000, 239.000000) scale(-1, 1) translate(-1.000000, -239.000000) "></path>
        <path d="M437.785277,230 L438,230 L438,230 L438,332 L437.785277,332 C437.281802,332 437.01181,331.930381 436.767366,331.79965 C436.522921,331.66892 436.33108,331.477079 436.20035,331.232634 C436.069619,330.98819 436,330.718198 436,330.214723 L436,231.785277 C436,231.281802 436.069619,231.01181 436.20035,230.767366 C436.33108,230.522921 436.522921,230.33108 436.767366,230.20035 C437.01181,230.069619 437.281802,230 437.785277,230 Z" id="Button-Copy" fill="#181818" transform="translate(437.000000, 281.000000) scale(-1, 1) translate(-437.000000, -281.000000) "></path>
        <path d="M366,0 C404.659932,-7.10171439e-15 436,31.3400675 436,70 L436,817 C436,855.659932 404.659932,887 366,887 L72,887 C33.3400675,887 2,855.659932 2,817 L2,70 C2,31.3400675 33.3400675,7.10171439e-15 72,0 L366,0 Z M370,21 L68,21 C43.1471863,21 23,41.1471863 23,66 L23,66 L23,822 C23,846.852814 43.1471863,867 68,867 L68,867 L370,867 C394.852814,867 415,846.852814 415,822 L415,822 L415,66 C415,41.1471863 394.852814,21 370,21 L370,21 Z" id="outter" fill="#36353A"></path>
        <path d="M366,8 C400.241654,8 428,35.7583455 428,70 L428,817 C428,851.241654 400.241654,879 366,879 L72,879 C37.7583455,879 10,851.241654 10,817 L10,70 C10,35.7583455 37.7583455,8 72,8 L366,8 Z M323.754898,26.2881643 L323.75,26.5 L323.75,30.5 C323.75,43.3113436 313.498267,53.7282667 300.750801,53.9947696 L300.75,54 L136.75,54 C124.00227,53.7288121 113.75,43.311679 113.75,30.5 L113.75,26.5 C113.75,24.1837524 112.000019,22.2762347 109.750085,22.0274738 L109.75,22 L69,22 C44.1471863,22 24,42.1471863 24,67 L24,67 L24,821 C24,845.852814 44.1471863,866 69,866 L69,866 L369,866 C393.852814,866 414,845.852814 414,821 L414,821 L414,67 C414,42.1471863 393.852814,22 369,22 L369,22 L328.25,22 C325.835727,22 323.865511,23.9012365 323.754898,26.2881643 Z" id="inner" fill="#000000"></path>
        <path d="M200,32 L238,32 C239.656854,32 241,33.3431458 241,35 C241,36.6568542 239.656854,38 238,38 L200,38 C198.343146,38 197,36.6568542 197,35 C197,33.3431458 198.343146,32 200,32 Z" id="Speaker" fill="#181818"></path>
        <circle id="Camera" fill="#181818" cx="262" cy="35" r="6"></circle>
    </g>
</svg>