<?xml version="1.0" encoding="iso-8859-1"?>
<!DOCTYPE svg PUBLIC "-//W3C//DTD SVG 1.1//EN" "http://www.w3.org/Graphics/SVG/1.1/DTD/svg11.dtd">
<svg 
 version="1.1" xmlns="http://www.w3.org/2000/svg" xmlns:xlink="http://www.w3.org/1999/xlink" x="0px" y="0px" width="512px"
	 height="512px" viewBox="0 0 512 512" enable-background="new 0 0 512 512" xml:space="preserve"
><g id="5151e0c8492e5103c096af88a522e9cf"><g></g><g fill="#ffffff"><path display="inline" d="M362.068,177.281v247.493v17.679v25.685c0,23.948-47.489,43.363-106.068,43.363
		c-58.586,0-106.068-19.415-106.068-43.363v-25.685v-17.679V177.281c0-9.723,5.87-12.316,13.051-5.759
		c0,0,34.431,31.444,93.017,31.444c58.579,0,93.01-31.444,93.01-31.444C356.191,164.965,362.068,167.558,362.068,177.281z
		 M218.724,132.568c0.739-32.294,32.2-43.094,32.2-43.094s1.595,6.674,4.958,12.35c7.396,12.454,16.338,23.586,14.874,36.344
		c-1.408,12.244-7.775,18.362-13.77,21.424c0.152,0.007,0.242,0.01,0.242,0.01s42.379-0.187,47.654-43.833
		c2.756-22.836-14.094-42.755-28.022-65.046C270.516,40.562,266.482,0.5,266.482,0.5s-58.255,47.448-59.643,105.25
		c-0.442,18.148,5.421,30.184,13.279,38.164C219.152,140.709,218.621,136.959,218.724,132.568z"></path></g></g></svg>