<?xml version="1.0" encoding="iso-8859-1"?>
<!DOCTYPE svg PUBLIC "-//W3C//DTD SVG 1.1//EN" "http://www.w3.org/Graphics/SVG/1.1/DTD/svg11.dtd">
<svg 
 version="1.1" xmlns="http://www.w3.org/2000/svg" xmlns:xlink="http://www.w3.org/1999/xlink" x="0px" y="0px" width="512px"
	 height="512px" viewBox="0 0 512 512" enable-background="new 0 0 512 512" xml:space="preserve"
><g id="5151e0c8492e5103c096af88a5233a09"><g></g><g fill="#ffffff"><path display="inline" d="M86.291,122.578c0-33.623,26.98-100.864,42.609-100.864c15.62,0,42.245,67.241,42.245,100.864
		c0,10.727-4.748,20.26-14.187,26.417c0.008-0.402,0.05-0.795,0.05-1.202c0-25.216-17.759-75.648-28.175-75.648
		c-10.408,0-28.398,50.432-28.398,75.648c0,0.406,0.033,0.8,0.05,1.202C91.047,142.838,86.291,133.305,86.291,122.578z
		 M197.911,163.298c0,0-22.324,20.389-69.193,20.389c-46.86,0-69.185-20.389-69.185-20.389c-8.618-7.868-15.67-4.757-15.67,6.911
		v190.923v7.072v28.949c0,19.159,37.994,34.692,84.854,34.692c46.869,0,84.854-15.533,84.854-34.692v-28.949v-7.072V170.209
		C213.572,158.542,206.529,155.43,197.911,163.298z M452.475,173.905c0,0-31.828,29.061-90.406,29.061s-90.398-29.061-90.398-29.061
		c-8.618-7.868-15.67-4.756-15.67,6.911v243.957v14.142v29.223c0,23.948,47.49,43.363,106.068,43.363s106.068-19.415,106.068-43.363
		v-29.223v-14.142V180.816C468.137,169.148,461.093,166.037,452.475,173.905z M324.795,132.567
		c0.737-32.293,32.202-43.094,32.202-43.094s1.591,6.675,4.964,12.351c7.392,12.455,16.332,23.583,14.865,36.345
		c-1.4,12.244-7.772,18.363-13.764,21.425c0.149,0.008,0.24,0.008,0.24,0.008s42.378-0.187,47.648-43.832
		c2.759-22.833-14.088-42.754-28.018-65.045C376.586,40.565,372.559,0.5,372.559,0.5s-58.254,47.449-59.646,105.248
		c-0.439,18.151,5.42,30.184,13.283,38.168C325.227,140.709,324.695,136.959,324.795,132.567z"></path></g></g></svg>